#usda 1.0

def "Model"
{
    timecode time.timeSamples = {
        0: 25,
        5: 20,
       10: 15,
       15: 10,
       20:  5,
       25:  0
    }    
    timecode[] timeArray.timeSamples = {
        0: [ 0, 25],
        5: [ 5, 20],
       10: [10, 15],
       15: [15, 10],
       20: [20,  5],
       25: [25,  0]
    }
    timecode timeSpline.spline = {
        0: 25; post linear,
        5: 20; post linear,
       10: 15; post linear,
       15: 10; post linear,
       20:  5; post linear,
       25:  0; post linear
    }
    duration dur.timeSamples = {
        0: 25,
        5: 20,
       10: 15,
       15: 10,
       20:  5,
       25:  0
    }
    duration durSpline.spline = {
        0: 25; post linear,
        5: 20; post linear,
       10: 15; post linear,
       15: 10; post linear,
       20:  5; post linear,
       25:  0; post linear
    }
    duration[] durArray.timeSamples = {
        0: [ 0, 25],
        5: [ 5, 20],
       10: [10, 15],
       15: [15, 10],
       20: [20,  5],
       25: [25,  0]
    }
}
