#usda 1.0

def "Model" (
    kind = "model"
)
{
    timecode time = 1.0
    timecode time.timeSamples = {
        5: -5.0,
        10: -10.0,
        15: -15.0,
        20: -20.0,
        25: -25.0
    }

    timecode[] timeArray = [1.0, 2.0]
    timecode[] timeArray.timeSamples = {
        5: [-5.0, 5.0],
        10: [-10.0, 10.0],
        15: [-15.0, 15.0],
        20: [-20.0, 20.0],
        25: [-25.0, 25.0]
    }

    timecode timeSpline = 1.0

    duration dur = 1.0
    duration dur.timeSamples = {
        5: -5.0,
        10: -10.0,
        15: -15.0,
        20: -20.0,
        25: -25.0
    }

    duration durSpline = 1.0

    duration[] durArray = [1.0, 2.0]
    duration[] durArray.timeSamples = {
        5: [-5.0, 5.0],
        10: [-10.0, 10.0],
        15: [-15.0, 15.0],
        20: [-20.0, 20.0],
        25: [-25.0, 25.0]
    }
}
