#usda 1.0
(
    defaultPrim = "mesh"
    endTimeCode = 100
    startTimeCode = 0
)

def Mesh "mesh"
{
    double3 xformOp:translate = (0, 0, 0)
    double3 xformOp:translate.timeSamples = {
        0: (0, 0, 0),
        100: (100, 0, 0),
    }
    uniform token[] xformOpOrder = ["xformOp:translate"]

    int[] faceVertexCounts = [4, 4, 4, 4, 4, 4]
    int[] faceVertexIndices = [0, 4, 6, 2, 0, 1, 5, 4, 4, 5, 7, 6, 3, 7, 5, 1, 6, 7, 3, 2, 2, 3, 1, 0]
    point3f[] points = [(-0.5, -0.5, -0.5), (0.5, -0.5, -0.5), (-0.5, 0.5, -0.5), (0.5, 0.5, -0.5), (-0.5, -0.5, 0.5), (0.5, -0.5, 0.5), (-0.5, 0.5, 0.5), (0.5, 0.5, 0.5)]
    float3[] extent = [(-0.5, -0.5, -0.5), (0.5, 0.5, 0.5)]
    uniform token subdivisionScheme = "none"
}

def Camera "camera" {
    float2 clippingRange = (1.0, 2000000.0)
    float focalLength = 218.12925720214844
    float focusDistance = 1129.03515625
    float fStop = 5.6
    float horizontalAperture = 24.0519962310791
    float verticalAperture = 20.954999923706055
    custom Matrix4d xformOp:transform = ((1.0, 0.0, 0.0, 0.0),(0.0, 1.0, 0.0, 0.0),(0.0, 0.0, 1.0, 0.0),(50.0, 0.0, 1129.0351765518724, 1.0))
    uniform token[] xformOpOrder = ["xformOp:transform"]
}