#usda 1.0

def "Model"
{
    float size = -1.0
    float size.timeSamples = {
        5: -5.0,
        10: -10.0,
        15: -15.0,
        20: -20.0
    }

    float attrSpline.spline = {
        5: 5; post linear,
        10: 10; post none,
        15: 15; post linear,
        16: 17; post held,
        pre: sloped(2),
        post: sloped(-2)
    }

    timecode time = -1.0
    timecode time.timeSamples = {
        5: -5.0,
        10: -10.0,
        15: -15.0,
        20: -20.0
    }

    duration dur = -1.0
    duration dur.timeSamples = {
        5: -5.0,
        10: -10.0,
        15: -15.0,
        20: -20.0
    }
}
