/* XPM */
static char *[] = {
/* columns rows colors chars-per-pixel */
"20 20 143 2",
"   c #26A2CF",
".  c #32A8D4",
"X  c #32AAD6",
"o  c #38AAD3",
"O  c #39ADD7",
"+  c #3CACD4",
"@  c #3BAED9",
"#  c #40ADD5",
"$  c #46B0D6",
"%  c #41B1DA",
"&  c #43B4DE",
"*  c #46B4DD",
"=  c #4AB2D7",
"-  c #4DB3D7",
";  c #4EB3D7",
":  c #48B3DA",
">  c #4AB3D9",
",  c #4AB5DD",
"<  c #4FB4D8",
"1  c #4EB5DA",
"2  c #4FB7DD",
"3  c #50B4D7",
"4  c #50B6DA",
"5  c #51B6DB",
"6  c #57B7DA",
"7  c #54B8DD",
"8  c #58B7DA",
"9  c #5BB9DA",
"0  c #5AB9DC",
"q  c #5FBBDB",
"w  c #5DBBDE",
"e  c #48B7E3",
"r  c #49B7E3",
"t  c #4FB8E1",
"y  c #49BAE9",
"u  c #4EBEED",
"i  c #56BBE2",
"p  c #57BCE3",
"a  c #62BAD9",
"s  c #60BBDC",
"d  c #63BCDB",
"f  c #63BCDC",
"g  c #64BBDA",
"h  c #66BEDD",
"j  c #68BEDD",
"k  c #4FC4FD",
"l  c #5BC2EF",
"z  c #59C4F4",
"x  c #5FC4F3",
"c  c #5EC5F8",
"v  c #6EC1DF",
"b  c #62C3E9",
"n  c #64C3EB",
"m  c #64C4EC",
"M  c #6FC8ED",
"N  c #60C4F6",
"B  c #72C9EE",
"V  c #75CAEE",
"C  c #7ACCEE",
"Z  c #7DCDEE",
"A  c #81C8E1",
"S  c #83CAE3",
"D  c #81CEEE",
"F  c #8DCEE4",
"G  c #8CD2EE",
"H  c #95D1E7",
"J  c #92D4EE",
"K  c #96D6EF",
"L  c #99D2E6",
"P  c #9BD4E8",
"I  c #9ED5E9",
"U  c #9DD7EE",
"Y  c #A0D6E9",
"T  c #A7D8E9",
"R  c #A9DAEA",
"E  c #AEDBEB",
"W  c #AFDCEC",
"Q  c #B4DEED",
"!  c #BBDFE9",
"~  c #A7E0FF",
"^  c #AAE6FF",
"/  c #ADE6FF",
"(  c #AEF0FF",
")  c #BAE0ED",
"_  c #BFE0E9",
"`  c #BCE1EE",
"'  c #BEE3F3",
"]  c #D4DDCF",
"[  c #D1DDD4",
"{  c #D6DFD1",
"}  c #D6DFD5",
"|  c #D6E1D4",
" . c #D7E2DB",
".. c #C2E1E8",
"X. c #C3E4EF",
"o. c #C6E2EA",
"O. c #C4E3ED",
"+. c #CAE6EF",
"@. c #C4E5F1",
"#. c #C5E6F0",
"$. c #C9E7F2",
"%. c #CBE8F1",
"&. c #D1E7EB",
"*. c #D5E7EB",
"=. c #D8E7E7",
"-. c #DDE8E3",
";. c #D4ECF4",
":. c #D2EDFA",
">. c #DCEDF3",
",. c #DDEFF5",
"<. c #DFF1F7",
"1. c #DFF1F8",
"2. c #EAE9DB",
"3. c #F7EDD8",
"4. c #FDEDD4",
"5. c #E6EBE6",
"6. c #E1EBEA",
"7. c #E8ECE5",
"8. c #EBEFEB",
"9. c #E3F3F7",
"0. c #E2F3F9",
"q. c #E4F3F8",
"w. c #E6F4F9",
"e. c #E8F4F8",
"r. c #EDF7FA",
"t. c #F4EFE4",
"y. c #FBEDE3",
"u. c #F0F0E8",
"i. c #F5F2EA",
"p. c #FFF6E4",
"a. c #F8F3EA",
"s. c #FBF5EE",
"d. c #FCF6EF",
"f. c #FEF7EC",
"g. c #FDF8EF",
"h. c #FFF5F5",
"j. c #FBF9F7",
"k. c #FDF9F2",
"l. c #FEF8F0",
"z. c #FEFAF5",
"x. c #FCFBF8",
"c. c gray100",
"v. c None",
/* pixels */
"v.8.-.u.a.l.l.x.v.v.v.v.v.v.v.v.v.v.v.v.",
"v.' y M Z G U E ..=.8.u.f.j.v.v.v.v.v.v.",
"v.O.> 9 8 4 1 4 t r b C Z / y.v.v.v.v.v.",
"v.O.4 h j j j 0 9 A 6 = 6 & ^ 4.v.v.v.v.",
"v.O.4 h j j s s ;.c.9.h 9 g r ^ p.v.v.v.",
"v.O.4 h j h ; I c.c.c.$.3 h a * ( h.v.v.",
"v.O.4 h h j ; P c.c.c.w.d f j d * ~ 3.v.",
"v.O.4 h j h f 6 ;.c.c.@.6 g h j q t 1.v.",
"v.O.4 h h j q h X.Q e.F = j j h f w >.v.",
"v.O.4 h a 4 # %.W   v ` q h h j f 9 9.v.",
"v.O.7 9 a A L ) 9 h = ` T + f j a 9 0.v.",
"v.O.> h <.c.c.F $ j q v ) A 6 9 h 9 9.v.",
"v.o.O H c.c.c.;.9 f f 8 ;.c.,.h 6 x  .v.",
"v.o.@ F c.c.c.r.h q ; Y c.c.c.@.1 c ] v.",
"v.o.2 6 @.c.c.@.6 f ; I c.c.c.q.q z } v.",
"v.o.2 9 8 I R f q h q d <.c.c.$.4 l  .v.",
"v.+.u i , X X 1 q d j 6 h @.@.j 9 N | v.",
"v.t.6.&.! T J D B n p 7 % X o 1 s c { v.",
"v.v.v.v.c.z.g.s.u.5.*._ R K D V n k [ v.",
"v.v.v.v.v.v.v.v.v.v.v.c.z.f.f.i.7.:.2.v."
};
