/* XPM */
static char *[] = {
/* columns rows colors chars-per-pixel */
"20 20 178 2",
"   c #43B4DE",
".  c #46B4DE",
"X  c #47B4DF",
"o  c #4EB3D7",
"O  c #4AB3D9",
"+  c #4FB5DA",
"@  c #4FB5DB",
"#  c #4FB6DA",
"$  c #4FB6DB",
"%  c #4DB5DC",
"&  c #4CB6DD",
"*  c #4DB6DD",
"=  c #4DB7DE",
"-  c #4EB5DC",
";  c #4FB7DD",
":  c #4DB8DF",
">  c #50B4D7",
",  c #53B5D6",
"<  c #50B4D8",
"1  c #51B5D9",
"2  c #50B5DB",
"3  c #51B5DB",
"4  c #52B5D8",
"5  c #52B5D9",
"6  c #52B5DA",
"7  c #53B6D9",
"8  c #50B6DC",
"9  c #50B7DC",
"0  c #50B7DD",
"q  c #54B6D8",
"w  c #54B6DA",
"e  c #56B7D8",
"r  c #56B7DB",
"t  c #57B8DB",
"y  c #58B7D9",
"u  c #58B8DB",
"i  c #59B9DA",
"p  c #5AB8DB",
"a  c #5ABADC",
"s  c #5CBADB",
"d  c #5DBADB",
"f  c #5EBADB",
"g  c #5EBBDC",
"h  c #5FBADC",
"j  c #5FBBDC",
"k  c #44B7E5",
"l  c #48B7E3",
"z  c #48BBEA",
"x  c #51B9E0",
"c  c #52B9E1",
"v  c #54BBE1",
"b  c #5ABEE5",
"n  c #62BBDB",
"m  c #60BBDC",
"M  c #62BCDA",
"N  c #61BCDC",
"B  c #63BDDD",
"V  c #64BCDA",
"C  c #65BCDB",
"Z  c #66BDDB",
"A  c #64BDDD",
"S  c #65BDDC",
"D  c #65BDDD",
"F  c #66BEDD",
"G  c #67BEDD",
"H  c #67BEDE",
"J  c #68BEDD",
"K  c #68BFDD",
"L  c #68BEDE",
"P  c #68BFDE",
"I  c #6BBFDE",
"U  c #4AC2FB",
"Y  c #5CC2EE",
"T  c #5CC2F2",
"R  c #5DC3F5",
"E  c #5EC5F4",
"W  c #5CC4F8",
"Q  c #5FC6F9",
"!  c #6BC0DE",
"~  c #60C1E8",
"^  c #60C2EB",
"/  c #65C3E8",
"(  c #6CC6EB",
")  c #6EC7EB",
"_  c #70C8EB",
"`  c #73C9EB",
"'  c #78CBEC",
"]  c #7ACCEC",
"[  c #7CCCEB",
"{  c #80CDEA",
"}  c #87CFEC",
"|  c #88CCE1",
" . c #8BCDE2",
".. c #8ECEE4",
"X. c #8DD1EB",
"o. c #92CFE3",
"O. c #91D3EC",
"+. c #97D4EB",
"@. c #9ED6E8",
"#. c #9ADCF7",
"$. c #9DDBFB",
"%. c #9EE0FF",
"&. c #A2D7E8",
"*. c #A8D8E7",
"=. c #B5DCE7",
"-. c #B0DCEA",
";. c #B0DDEB",
":. c #BADDE6",
">. c #BDDDE5",
",. c #A3E0FE",
"<. c #A2EAFF",
"1. c #BDE2EE",
"2. c #BFE2ED",
"3. c #B8E2F0",
"4. c #CDDBD1",
"5. c #D0DBCC",
"6. c #D2DDCE",
"7. c #D2DDD2",
"8. c #D2DFD1",
"9. c #C0DFE6",
"0. c #D4E1D6",
"q. c #D2E0D8",
"w. c #C1E0E7",
"e. c #C1E0E8",
"r. c #C1E1E9",
"t. c #C1E1EA",
"y. c #C0E2EB",
"u. c #C1E2EA",
"i. c #C1E2EB",
"p. c #C3E0E8",
"a. c #C0E2EC",
"s. c #C0E3ED",
"d. c #C5E3EC",
"f. c #CCE4E9",
"g. c #CFEAF2",
"h. c #CCEAF6",
"j. c #D4E5E4",
"k. c #D2E6E8",
"l. c #D8E5E0",
"z. c #DCE9E7",
"x. c #D9ECF1",
"c. c #DAEFF6",
"v. c #DEF0F5",
"b. c #DFF0F4",
"n. c #E7E7DB",
"m. c #F6ECD7",
"M. c #FBECD3",
"N. c #E2E9E4",
"B. c #E5EAE3",
"V. c #E5EBE6",
"C. c #EEEEE7",
"Z. c #E8EEEA",
"A. c #E0F3F8",
"S. c #EBF6F8",
"D. c #F2EEE3",
"F. c #F0EFE7",
"G. c #F9ECE2",
"H. c #F2F0E9",
"J. c #F3F1E9",
"K. c #F6F2E9",
"L. c #FFF6E3",
"P. c #F9F4ED",
"I. c #FBF5EE",
"U. c #FDF6EB",
"Y. c #FCF7EE",
"T. c #FDF7EF",
"R. c #F0F8FA",
"E. c #FFF5F5",
"W. c #FBF9F7",
"Q. c #FDF8F0",
"!. c #FDF8F2",
"~. c #FEFAF5",
"^. c #FEFBF7",
"/. c #FCFBF8",
"(. c #FFFEFE",
"). c #FFFFFE",
"_. c gray100",
"`. c None",
/* pixels */
"`.Z.l.C.K.Y.!./.`.`.`.`.`.`.`.`.`.`.`.`.",
"`.3.k ( ' } +.*.>.j.V.H.U.W.`.`.`.`.`.`.",
"`.2.O d p w + 0 c b / ` ] ,.G.`.`.`.`.`.",
"`.a.+ F F J F F F F N d 2   %.M.`.`.`.`.",
"`.y.+ F F F F J F J F J J C l #.L.`.`.`.",
"`.a.+ F F J J J J F J F J J C X <.E.`.`.",
"`.y.2 F J F J J F F J J F J J F . $.m.`.",
"`.y.+ F F J J m o , 2 J J F J J n : c.`.",
"`.y.+ F F F j M a.S.o.2 J J F J F a x.`.",
"`.y.+ F F F o -._._._. .2 F J F F p v.`.",
"`.y.2 F J F o 2._._._.2.o F F J N y v.`.",
"`.w.2 F F F 2  ._._._.-.o F J F F t v.`.",
"`.w.2 F J F J , o.R.g.C d J J F F T q.`.",
"`.w.0 F F J J J 2 q q d ! J F J F Q 5.`.",
"`.y.0 F J F J F J F F J J F J F F E 8.`.",
"`.9.& F F J F J F F F J F J F J F T 7.`.",
"`.d.z 0 & & 2 p d F F F J F F F F R 8.`.",
"`.D.z.f.=.@.X.[ ( ~ v & + 2 r j j W 6.`.",
"`.`.`.`._.~.!.P.F.N.k.:.&.O.{ _ Y U 4.`.",
"`.`.`.`.`.`.`.`.`.`.`._.~.Y.P.K.B.h.n.`."
};
